<svg width="48" height="48" viewBox="0 0 48 48" fill="none" xmlns="http://www.w3.org/2000/svg">
<path d="M35.3439 17.325L16.9407 37.4062H10.1907C9.72198 37.4062 9.34698 36.9375 9.44073 36.4688L13.9407 7.96875C14.0345 7.3125 14.597 6.84375 15.2532 6.84375H26.6907C34.5657 7.125 36.722 11.1562 35.3157 17.3438L35.3439 17.325Z" fill="#002C8A"/>
<path d="M35.6439 15.4688C38.4564 16.9688 39.1126 19.7812 38.1751 23.5312C36.9564 29.0625 33.3001 31.4062 27.9564 31.5L26.4564 31.5938C25.8939 31.5938 25.5189 31.9688 25.4251 32.5312L24.2064 39.9375C24.1126 40.5938 23.5501 41.0625 22.8939 41.0625H17.2689C16.8001 41.0625 16.4251 40.5938 16.5189 40.125L18.5814 26.7188C18.6751 26.25 35.6439 15.4688 35.6439 15.4688Z" fill="#009BE1"/>
<path d="M18.4688 27.375L20.3438 15.4688C20.4053 15.1868 20.558 14.9329 20.7783 14.7465C20.9986 14.5601 21.2742 14.4515 21.5625 14.4375H30.5625C32.7188 14.4375 34.3125 14.8125 35.625 15.4688C35.1562 19.5938 33.1875 26.25 23.625 26.4375H19.5C19.0312 26.4375 18.5625 26.8125 18.4688 27.375Z" fill="#001F6B"/>
</svg>
